<?xml version="1.0" encoding="UTF-8"?>
<svg xmlns="http://www.w3.org/2000/svg" viewBox="0 0 64 64" width="512" height="512"><g id="Outline"><path d="M39,13h1v1a1,1,0,0,0,2,0V13h1a1,1,0,0,0,1-1V5a1,1,0,0,0-1-1H42V3a1,1,0,0,0-2,0V4H39a1,1,0,0,0-1,1v7A1,1,0,0,0,39,13Zm1-7h2v5H40Z"/><path d="M59,14H52V8a1,1,0,0,0-1-1H50V6a1,1,0,0,0-2,0V7H47a1,1,0,0,0-1,1v7a1,1,0,0,0,1,1h1v1a1,1,0,0,0,1,1,.946.946,0,0,0,.171-.034,3,3,0,0,0,2.6,2.026l-1.3,1.3a1,1,0,0,0,1.414,1.414l3-3A1,1,0,0,0,54.172,18H52a1,1,0,0,1,0-2h7a1,1,0,0,1,1,1v7a1,1,0,0,1-2,0V21.828a1,1,0,0,0-1.707-.707l-3.586,3.586A1.008,1.008,0,0,1,52,25H40.236a1,1,0,0,0-.895.553l-3.447,6.895a1,1,0,0,1-.358.4l-11,7A1,1,0,0,1,24,40H16.774A12.866,12.866,0,0,1,15.02,27H16v1a1,1,0,0,0,2,0V27h1a1,1,0,0,0,1-1V21.076a12.941,12.941,0,0,1,4.278-1.76A.992.992,0,0,0,24,20v1H23a1,1,0,0,0-1,1v7a1,1,0,0,0,1,1h1v1a1,1,0,0,0,2,0V30h1a1,1,0,0,0,1-1V22a1,1,0,0,0-1-1H26V20a.992.992,0,0,0-.552-.882A12.975,12.975,0,0,1,30,19.377V20a1,1,0,0,0,1,1h1v1a1,1,0,0,0,2,0v-.927a13.008,13.008,0,0,1,2.215,1.788l-3.526,7.054L23.126,36H17.936a1,1,0,0,0,0,2h5.482a1,1,0,0,0,.537-.156L34,31.454a1,1,0,0,0,.357-.4l3.752-7.506a1.177,1.177,0,0,1,.134-.183A.992.992,0,0,1,39,23h8a1,1,0,0,0,0-2H42.477A19.074,19.074,0,0,0,36,15.3V11a1,1,0,0,0-1-1H34V9a1,1,0,0,0-2,0v1H31a1,1,0,0,0-1,1v2.271A18.527,18.527,0,0,0,27.01,13a1,1,0,0,0,0,2,16.659,16.659,0,0,1,2.99.293v2.031A15.009,15.009,0,0,0,20,18.75V16.524a16.236,16.236,0,0,1,3.255-1.1,1,1,0,1,0-.43-1.953A18.3,18.3,0,0,0,18.554,15H18V14a1,1,0,0,0-2,0v1H15a1,1,0,0,0-1,1v2.192A19.008,19.008,0,0,0,10.869,22H10V21a1,1,0,0,0-2,0v1H7a1,1,0,0,0-1,1v8a1,1,0,0,0,1,1H8a18.868,18.868,0,0,0,1.193,6.565L2.879,44.878a3,3,0,1,0,4.242,4.243l5.146-5.145a18.93,18.93,0,0,0,25.024,3.972l3.118,3.118a2.983,2.983,0,0,0,.862,2.277l7.778,7.778a3,3,0,0,0,4.243,0l2.828-2.828a3,3,0,0,0,0-4.243l-7.778-7.779a2.982,2.982,0,0,0-2.277-.862l-3.118-3.118A18.871,18.871,0,0,0,46,32a17.457,17.457,0,0,0-.127-2.122,1,1,0,1,0-1.985.244A15.422,15.422,0,0,1,44,32a17,17,0,0,1-34,0h1a1,1,0,0,0,1-1V24.043A16.863,16.863,0,0,1,14,21.1v3.46c-.005.009-.015.014-.02.023A14.976,14.976,0,0,0,27,47a15.122,15.122,0,0,0,2.966-.29,1,1,0,0,0-.393-1.961A13.16,13.16,0,0,1,27,45a12.939,12.939,0,0,1-8.3-3H24a3,3,0,0,0,1.611-.469l11-7a3.006,3.006,0,0,0,1.072-1.189l2.025-4.05a12.959,12.959,0,0,1-6.636,14.2,1,1,0,1,0,.936,1.768A14.954,14.954,0,0,0,41.129,27H52a2.979,2.979,0,0,0,2.121-.879l1.888-1.888A3,3,0,0,0,62,24V17A3,3,0,0,0,59,14ZM48,9h2v5H48ZM26,28H24V23h2Zm13.946-7H39a2.94,2.94,0,0,0-1.43.387,15.008,15.008,0,0,0-1.575-1.36c0-.01.005-.017.005-.027V17.607A17.1,17.1,0,0,1,39.946,21ZM32,12h2v7H32ZM46.222,55.464l4.243-4.243,1.414,1.415-4.243,4.243Zm8.485,1.415-2.828,2.828a1,1,0,0,1-1.415,0L49.05,58.293l4.243-4.243,1.414,1.414A1,1,0,0,1,54.707,56.879ZM49.05,49.807,44.808,54.05l-2.121-2.121a1,1,0,0,1,0-1.415l2.829-2.828a1,1,0,0,1,1.415,0Zm-7.287-5.872L44.1,46.272,41.272,49.1l-2.337-2.337A19.149,19.149,0,0,0,41.764,43.935ZM5.707,47.708a1.023,1.023,0,0,1-1.414,0,1,1,0,0,1,0-1.414l5.756-5.756a18.977,18.977,0,0,0,1.03,1.8ZM8,24h2v6H8Zm8-7h2v8H16Z"/><path d="M31,55H27a1,1,0,0,0-1,1v5a1,1,0,0,0,1,1h4a1,1,0,0,0,1-1V56A1,1,0,0,0,31,55Zm-1,5H28V57h2Z"/><path d="M39,56H35a1,1,0,0,0-1,1v4a1,1,0,0,0,1,1h4a1,1,0,0,0,1-1V57A1,1,0,0,0,39,56Zm-1,4H36V58h2Z"/><path d="M59,30H55a1,1,0,0,0-1,1V43a1,1,0,0,0,1,1h4a1,1,0,0,0,1-1V31A1,1,0,0,0,59,30Zm-3,6h2v2H56Zm0-4h2v2H56Zm2,10H56V40h2Z"/><path d="M23,53H19a1,1,0,0,0-1,1v7a1,1,0,0,0,2,0V55h2v6a1,1,0,0,0,2,0V54A1,1,0,0,0,23,53Z"/><path d="M7,53H3a1,1,0,0,0-1,1v7a1,1,0,0,0,1,1H7a1,1,0,0,0,1-1V54A1,1,0,0,0,7,53ZM6,60H4V55H6Z"/><path d="M15,50H11a1,1,0,0,0-1,1V61a1,1,0,0,0,1,1h4a1,1,0,0,0,1-1V51A1,1,0,0,0,15,50ZM14,60H12V52h2Z"/></g></svg>
